<svg width="254" height="43" viewBox="0 0 254 43" fill="none" xmlns="http://www.w3.org/2000/svg">
<path d="M36.1265 42.4885C32.0423 42.2687 28.8876 38.8411 28.8876 34.7943V29.0497L26.2671 30.9959C24.342 32.4254 21.6859 32.5227 19.6591 31.2358C16.1464 29.0078 11.9299 24.1188 11.433 23.5349C10.7359 22.8135 9.77928 22.4494 8.76671 22.535C7.10962 22.6743 5.76292 24.2144 5.76292 25.8586V34.838C5.76292 36.5342 7.04178 38.0039 8.74975 38.1582C10.702 38.3378 12.3489 36.8144 12.3489 34.9185V31.964C12.3489 30.8533 13.1715 29.8802 14.2858 29.7577C15.6037 29.6134 16.7197 30.6318 16.7197 31.9069V34.796C16.7197 38.8411 13.565 42.2687 9.48077 42.4885C5.06073 42.7267 1.38867 39.2387 1.38867 34.9168V25.7831C1.38867 21.6022 4.82667 18.2014 9.05335 18.2014C11.1701 18.2014 13.2156 19.0855 14.6658 20.6274C14.6912 20.6542 14.7166 20.6828 14.7421 20.713C14.7828 20.7616 18.9247 25.6355 22.0183 27.5985C22.517 27.9139 23.1683 27.8904 23.6415 27.5397L29.761 22.9947C30.565 22.3974 31.6997 22.4092 32.5019 23.0853C32.9989 23.5047 33.2601 24.1356 33.2601 24.7798V34.8413C33.2601 36.5375 34.539 38.0072 36.2469 38.1616C38.2008 38.3377 39.8478 36.8144 39.8478 34.9168V8.75562C39.8478 6.95875 38.3705 5.49743 36.5539 5.49743C36.5505 5.49743 36.5471 5.49743 36.5421 5.49743C35.8941 5.49743 35.2717 5.74741 34.8069 6.19537L25.112 15.5237C24.2911 16.3139 22.9902 16.3424 22.1337 15.5891L19.2893 13.0825C18.4514 12.3443 18.2632 11.0894 18.9128 10.1851C19.6811 9.11466 21.1923 8.96702 22.154 9.81596L23.5211 11.0206L32.4545 2.42546C32.4782 2.40197 32.5036 2.37849 32.5291 2.35667C33.8792 1.17554 35.4226 1.17554 36.5505 1.17554C40.7772 1.17554 44.2152 4.57634 44.2152 8.7573V34.9202C44.2186 39.2387 40.5466 42.7267 36.1265 42.4885Z" fill="#FFCD17"/>
<path d="M8.02889 15.084C3.7174 15.4648 0.119967 11.9063 0.504982 7.64145C0.798408 4.37151 3.46129 1.73912 6.76529 1.44719C11.0768 1.06802 14.6742 4.62653 14.2909 8.89138C13.9958 12.1596 11.3346 14.7937 8.02889 15.084ZM7.73037 5.76572C6.0648 5.556 4.65873 6.94854 4.86905 8.59441C5.01322 9.71683 5.93081 10.6245 7.0655 10.7671C8.73107 10.9768 10.1371 9.58429 9.92513 7.93674C9.78096 6.81432 8.86506 5.90833 7.73037 5.76572Z" fill="#FFCD17"/>
<path d="M76.5021 10.5776C74.6602 4.68704 70.5607 2.26604 67.445 1.27114C64.4785 0.324884 61.841 0.49266 61.2627 0.546348C60.6843 0.568158 58.0452 0.742645 55.2279 2.06639C52.2716 3.45557 48.5283 6.38828 47.4818 12.4668C46.7305 16.839 48.3893 21.4142 51.9222 24.7026C51.9426 24.7228 51.9646 24.7412 51.985 24.7597L61.897 33.2894C61.9208 33.3095 61.9462 33.3279 61.9716 33.3481C61.9988 33.3699 62.0242 33.3917 62.0514 33.4118C62.0785 33.432 62.1073 33.4487 62.1345 33.4672C62.1633 33.4857 62.1904 33.5041 62.2193 33.5209C62.2481 33.5377 62.2786 33.5528 62.3092 33.5679C62.338 33.583 62.3651 33.5981 62.394 33.6115C62.4262 33.6266 62.4584 33.6383 62.4923 33.6518C62.5195 33.6635 62.5466 33.6752 62.5754 33.6853C62.6111 33.6987 62.6467 33.7088 62.6823 33.7189C62.7077 33.7273 62.7332 33.7356 62.7603 33.7424C62.7993 33.7524 62.8383 33.7608 62.8774 33.7692C62.9011 33.7742 62.9248 33.7809 62.9486 33.7843C62.9944 33.7927 63.0402 33.7977 63.086 33.8028C63.1046 33.8044 63.1216 33.8078 63.1402 33.8095C63.2047 33.8145 63.2675 33.8179 63.3319 33.8179C63.4082 33.8179 63.4846 33.8145 63.5592 33.8061C63.5812 33.8044 63.6033 33.7994 63.627 33.796C63.6796 33.7893 63.7322 33.7826 63.7848 33.7709C63.8136 33.7642 63.8441 33.7558 63.873 33.7474C63.9171 33.7356 63.9629 33.7256 64.0053 33.7122C64.0375 33.7021 64.0697 33.687 64.1019 33.6752C64.1409 33.6601 64.18 33.6484 64.219 33.6316C64.2546 33.6165 64.2868 33.5981 64.3224 33.5796C64.3563 33.5628 64.392 33.5461 64.4259 33.5276C64.4615 33.5075 64.4937 33.484 64.5277 33.4622C64.5582 33.442 64.5904 33.4236 64.6209 33.4018C64.6549 33.3766 64.6871 33.3498 64.7193 33.3229C64.7481 33.2994 64.777 33.2776 64.8058 33.2525C64.8363 33.2256 64.8652 33.1937 64.894 33.1635C64.9195 33.1384 64.9466 33.1132 64.972 33.0864L73.6679 23.3453C73.6866 23.3235 73.7053 23.3034 73.7239 23.2799C76.7871 19.5637 77.8268 14.814 76.5021 10.5776ZM70.3589 20.5183L63.1284 28.6168L54.887 21.525C52.4429 19.2332 51.2862 16.1209 51.7899 13.1916C53.1434 5.31788 60.7674 4.88837 61.4102 4.86656C61.4899 4.86656 61.5714 4.86153 61.6511 4.85146C61.9869 4.81623 69.8856 4.05621 72.3229 11.8544C73.2134 14.6948 72.4773 17.9295 70.3589 20.5183Z" fill="#FFCD17"/>
<path d="M90.0218 25.2682C89.9929 24.6944 89.7894 22.0872 88.4223 19.3156C86.9874 16.4063 83.9836 12.732 77.8285 11.7623C73.4 11.0644 68.7934 12.7522 65.5063 16.2805C65.4877 16.3006 65.4673 16.3224 65.4503 16.3443L56.9308 26.2363C56.9105 26.2598 56.8935 26.2849 56.8732 26.3101C56.8477 26.342 56.8223 26.3739 56.7985 26.4057C56.7799 26.4326 56.7646 26.4594 56.746 26.4879C56.7239 26.5215 56.7019 26.5551 56.6815 26.5903C56.6662 26.6188 56.6527 26.6473 56.6374 26.6759C56.6204 26.7111 56.6001 26.7463 56.5848 26.7815C56.5713 26.8117 56.5611 26.8419 56.5492 26.8721C56.5356 26.9074 56.5204 26.9426 56.5102 26.9778C56.5 27.0097 56.4932 27.0416 56.4831 27.0752C56.4729 27.1104 56.4627 27.1456 56.4542 27.1809C56.4474 27.2144 56.4424 27.248 56.4373 27.2798C56.4322 27.3151 56.4237 27.3503 56.4203 27.3855C56.4169 27.4191 56.4152 27.4527 56.4135 27.4879C56.4118 27.5231 56.4067 27.5583 56.4067 27.5936C56.4067 27.6271 56.4084 27.6624 56.4101 27.6959C56.4118 27.7312 56.4101 27.7664 56.4135 27.7999C56.4169 27.8335 56.422 27.8687 56.4254 27.9023C56.4305 27.9375 56.4322 27.9711 56.439 28.0063C56.4457 28.0399 56.4542 28.0734 56.461 28.107C56.4695 28.1405 56.4746 28.1758 56.4848 28.2093C56.4932 28.2429 56.5068 28.2747 56.517 28.3083C56.5272 28.3419 56.5373 28.3754 56.5509 28.4073C56.5628 28.4408 56.5797 28.471 56.5933 28.5046C56.6069 28.5365 56.6204 28.5684 56.6357 28.6002C56.651 28.6321 56.6713 28.6623 56.6883 28.6942C56.7053 28.7244 56.7205 28.7546 56.7392 28.7848C56.7578 28.815 56.7816 28.8452 56.8019 28.8754C56.8223 28.9039 56.8409 28.9324 56.863 28.9609C56.885 28.9895 56.9105 29.0163 56.9359 29.0448C56.9597 29.0717 56.9817 29.1002 57.0072 29.1254C57.0326 29.1522 57.0614 29.1774 57.0903 29.2042C57.1174 29.2294 57.1445 29.2562 57.1734 29.2814L67.1007 37.7742C67.1227 37.7926 67.1448 37.8111 67.1668 37.8279C69.8348 39.9351 73.0082 41.0441 76.1443 41.0441C77.4638 41.0441 78.7766 40.8478 80.0402 40.4468C85.9766 38.5644 88.3816 34.4841 89.3552 31.392C90.2796 28.4476 90.0811 25.8403 90.0218 25.2682ZM78.7037 36.328C75.8424 37.2356 72.5638 36.5427 69.9264 34.4724L61.6647 27.404L68.7476 19.1797C71.039 16.7402 74.1734 15.5641 77.1399 16.0322C85.1234 17.2922 85.6272 24.8454 85.6543 25.4628C85.656 25.5417 85.6611 25.6205 85.6713 25.6994C85.6713 25.7011 85.6713 25.7044 85.673 25.7078C85.673 25.7095 85.673 25.7095 85.673 25.7111C85.7255 26.1608 86.4956 33.8566 78.7037 36.328Z" fill="#FFCD17"/>
<path d="M108.142 31.9567C108.196 31.882 108.249 31.8394 108.302 31.8287C108.366 31.818 108.414 31.8447 108.446 31.9087C108.478 31.9727 108.484 32.0794 108.462 32.2287C108.1 33.1034 107.502 33.8607 106.67 34.5007C105.838 35.13 105.086 35.4447 104.414 35.4447C103.422 35.4447 102.788 34.986 102.51 34.0687C102.265 33.258 102.35 32.3674 102.766 31.3967C103.161 30.4794 103.705 29.8927 104.398 29.6367C104.58 29.5727 104.761 29.53 104.942 29.5087C105.806 29.4554 106.233 29.7434 106.222 30.3727C106.212 30.938 105.902 31.5567 105.294 32.2287C104.654 32.9327 104.046 33.2794 103.47 33.2687C103.396 33.2687 103.326 33.258 103.262 33.2367C103.294 33.642 103.412 33.962 103.614 34.1967C103.817 34.4314 104.116 34.538 104.51 34.5167C104.98 34.4847 105.454 34.3407 105.934 34.0847C106.425 33.8287 106.857 33.514 107.23 33.1407C107.604 32.7674 107.908 32.3727 108.142 31.9567ZM104.846 30.2927C104.462 30.3567 104.126 30.6127 103.838 31.0607C103.55 31.498 103.364 31.994 103.278 32.5487C103.556 32.6447 103.988 32.4154 104.574 31.8607C105.14 31.338 105.438 30.906 105.47 30.5647C105.492 30.298 105.284 30.2074 104.846 30.2927ZM113.587 34.5007C113.704 34.4154 113.768 34.4314 113.779 34.5487C113.8 34.666 113.784 34.7727 113.731 34.8687C113.656 35.1034 113.47 35.274 113.171 35.3807C112.883 35.4874 112.542 35.5674 112.147 35.6207C111.283 35.7274 110.584 35.498 110.051 34.9327C109.731 35.402 109.464 35.8714 109.251 36.3407C109.166 36.4687 109.075 36.5434 108.979 36.5647C108.872 36.586 108.803 36.5594 108.771 36.4847C108.739 36.41 108.744 36.3087 108.787 36.1807C109.064 35.466 109.342 34.8527 109.619 34.3407C109.31 33.7754 109.139 33.098 109.107 32.3087C109.064 31.5194 109.15 30.858 109.363 30.3247C109.374 30.282 109.411 30.234 109.475 30.1807C109.539 30.1167 109.598 30.0954 109.651 30.1167C109.715 30.138 109.747 30.2287 109.747 30.3887C109.715 31.8287 109.827 32.89 110.083 33.5727C110.584 32.7834 111.246 31.994 112.067 31.2047C112.291 30.9914 112.483 30.8367 112.643 30.7407C112.803 30.6447 112.926 30.5967 113.011 30.5967C113.096 30.586 113.166 30.6234 113.219 30.7087C113.283 30.794 113.32 30.8794 113.331 30.9647C113.352 31.0394 113.374 31.1514 113.395 31.3007C113.331 31.354 113.256 31.418 113.171 31.4927C113.096 31.5567 113.016 31.626 112.931 31.7007C112.846 31.7754 112.776 31.8394 112.723 31.8927C111.816 32.7354 111.07 33.5407 110.483 34.3087C111.006 34.9274 111.811 35.0714 112.899 34.7407C113.272 34.634 113.502 34.554 113.587 34.5007ZM120.352 29.3807C120.587 29.5514 120.747 29.7754 120.832 30.0527C120.928 30.33 120.966 30.6127 120.944 30.9007C120.923 31.1887 120.859 31.498 120.752 31.8287C120.656 32.1487 120.544 32.4367 120.416 32.6927C120.299 32.9487 120.176 33.1834 120.048 33.3967C119.792 33.7914 119.334 34.282 118.672 34.8687C118.011 35.4554 117.52 35.7487 117.2 35.7487C117.126 35.7487 117.062 35.7274 117.008 35.6847C116.966 35.6314 116.944 35.5727 116.944 35.5087C118.118 34.698 119.062 33.61 119.776 32.2447C120.022 31.7647 120.171 31.2527 120.224 30.7087C120.278 30.1647 120.128 29.9247 119.776 29.9887C119.691 29.9994 119.584 30.0367 119.456 30.1007C118.976 30.346 118.544 30.7034 118.16 31.1727C117.787 31.6314 117.483 32.1434 117.248 32.7087C117.024 33.274 116.827 33.8927 116.656 34.5647C116.486 35.226 116.374 35.882 116.32 36.5327C116.267 37.1834 116.23 37.8234 116.208 38.4527C116.187 39.0927 116.203 39.658 116.256 40.1487C116.288 40.4794 116.219 40.682 116.048 40.7567C115.664 40.9274 115.435 40.1807 115.36 38.5167C115.275 36.8527 115.296 35.1087 115.424 33.2847C115.552 31.4607 115.691 30.33 115.84 29.8927L115.824 29.8127H115.856C115.952 29.578 116.075 29.466 116.224 29.4767C116.438 29.498 116.544 29.6314 116.544 29.8767C116.438 31.0927 116.352 32.2287 116.288 33.2847C116.352 33.1354 116.416 32.9807 116.48 32.8207C116.555 32.6607 116.646 32.474 116.752 32.2607C116.859 32.0474 116.998 31.7967 117.168 31.5087C117.339 31.2207 117.52 30.9487 117.712 30.6927C117.904 30.4367 118.112 30.1914 118.336 29.9567C118.56 29.7114 118.784 29.5247 119.008 29.3967C119.232 29.2687 119.462 29.194 119.696 29.1727C119.931 29.1407 120.15 29.21 120.352 29.3807ZM128.681 32.7407C128.767 32.794 128.788 32.8687 128.745 32.9647C128.553 33.4447 128.313 33.962 128.025 34.5167C127.737 35.0714 127.401 35.6314 127.017 36.1967C126.644 36.762 126.239 37.226 125.801 37.5887C125.364 37.9514 124.953 38.1274 124.569 38.1167C124.089 38.106 123.727 37.9407 123.481 37.6207C123.247 37.3007 123.087 36.8687 123.001 36.3247C122.937 35.8767 122.905 35.338 122.905 34.7087C122.905 34.1647 122.932 33.5674 122.985 32.9167C123.071 31.6474 123.231 30.3407 123.465 28.9967C123.7 27.6527 123.919 26.65 124.121 25.9887C124.249 25.5727 124.399 25.2474 124.569 25.0127C124.751 24.7674 124.921 24.6287 125.081 24.5967C125.252 24.554 125.412 24.5754 125.561 24.6607C125.711 24.7354 125.833 24.874 125.929 25.0767C126.036 25.2794 126.1 25.514 126.121 25.7807C126.217 26.9327 126.041 28.106 125.593 29.3007C125.156 30.4954 124.559 31.6314 123.801 32.7087C123.652 35.066 123.743 36.5167 124.073 37.0607C124.169 37.2207 124.287 37.3167 124.425 37.3487C124.575 37.3914 124.735 37.3647 124.905 37.2687C125.076 37.1727 125.252 37.05 125.433 36.9007C125.615 36.7514 125.807 36.5487 126.009 36.2927C126.223 36.0474 126.415 35.8127 126.585 35.5887C126.767 35.354 126.959 35.0874 127.161 34.7887C127.364 34.4794 127.529 34.2234 127.657 34.0207C127.796 33.8074 127.945 33.5727 128.105 33.3167C128.276 33.05 128.388 32.8794 128.441 32.8047C128.473 32.7514 128.521 32.7247 128.585 32.7247C128.617 32.7247 128.649 32.73 128.681 32.7407ZM125.225 25.3007C124.991 25.514 124.751 26.1967 124.505 27.3487C124.26 28.49 124.068 29.7807 123.929 31.2207C124.463 30.1754 124.879 29.1354 125.177 28.1007C125.487 27.0554 125.545 26.1967 125.353 25.5247C125.311 25.3967 125.268 25.322 125.225 25.3007ZM136.351 31.9087L136.447 32.1007C135.935 32.5807 135.514 32.922 135.183 33.1247C134.863 33.3274 134.308 33.594 133.519 33.9247C133.284 34.7247 132.916 35.338 132.415 35.7647C131.924 36.1914 131.364 36.2767 130.735 36.0207C129.967 35.7114 129.487 34.9327 129.295 33.6847C129.114 33.4074 129.039 33.0767 129.071 32.6927C129.103 32.3087 129.199 31.9354 129.359 31.5727C129.508 31.21 129.743 30.874 130.063 30.5647C130.394 30.2554 130.762 30.042 131.167 29.9247C131.668 29.7967 132.09 29.786 132.431 29.8927C132.772 29.9887 133.044 30.1914 133.247 30.5007C133.45 30.81 133.588 31.1674 133.663 31.5727C133.738 31.9674 133.754 32.3994 133.711 32.8687C134.34 32.6874 135.22 32.3674 136.351 31.9087ZM131.471 35.2847C131.876 35.178 132.212 34.8154 132.479 34.1967C131.828 34.3354 131.236 34.3994 130.703 34.3887C130.479 34.3887 130.271 34.3567 130.079 34.2927C130.388 35.1247 130.852 35.4554 131.471 35.2847ZM132.751 33.2367C132.815 32.8527 132.831 32.4847 132.799 32.1327C132.767 31.7807 132.682 31.4714 132.543 31.2047C132.415 30.938 132.223 30.7674 131.967 30.6927C131.711 30.6074 131.391 30.6394 131.007 30.7887C130.516 31.002 130.164 31.4074 129.951 32.0047C129.738 32.602 129.786 33.0447 130.095 33.3327C130.244 33.482 130.447 33.5514 130.703 33.5407C131.46 33.53 132.143 33.4287 132.751 33.2367ZM137.217 30.6767V30.6607C137.217 30.6607 137.223 30.6554 137.233 30.6447C137.233 30.6234 137.239 30.602 137.249 30.5807C137.26 30.5487 137.276 30.522 137.297 30.5007C137.319 30.4687 137.356 30.4474 137.409 30.4367C137.463 30.4154 137.527 30.4047 137.601 30.4047C137.708 30.4047 137.788 30.426 137.841 30.4687C137.905 30.5114 137.953 30.5914 137.985 30.7087C138.017 30.8474 138.033 31.0234 138.033 31.2367C138.044 31.4394 138.039 31.6207 138.017 31.7807C138.007 31.9407 137.991 32.1007 137.969 32.2607C137.959 32.41 137.953 32.49 137.953 32.5007C137.953 32.5967 137.953 32.7514 137.953 32.9647C138.113 32.4634 138.279 32.01 138.449 31.6047C138.62 31.1994 138.812 30.8207 139.025 30.4687C139.239 30.1167 139.463 29.8554 139.697 29.6847C139.943 29.514 140.188 29.4607 140.433 29.5247C140.625 29.578 140.78 29.738 140.897 30.0047C141.015 30.2607 141.1 30.5487 141.153 30.8687C141.217 31.178 141.281 31.482 141.345 31.7807C141.409 32.0687 141.516 32.282 141.665 32.4207C141.815 32.5594 142.012 32.57 142.257 32.4527C142.396 32.378 142.567 32.2927 142.769 32.1967C142.929 32.122 143.079 32.1327 143.217 32.2287C143.271 32.3674 143.169 32.5434 142.913 32.7567C142.668 32.97 142.396 33.1087 142.097 33.1727C141.799 33.2367 141.543 33.2207 141.329 33.1247C141.116 33.0287 140.956 32.89 140.849 32.7087C140.743 32.5274 140.647 32.2874 140.561 31.9887C140.497 31.7647 140.428 31.4554 140.353 31.0607C140.279 30.666 140.225 30.4207 140.193 30.3247C139.5 30.6767 138.673 32.602 137.713 36.1007C137.681 36.1967 137.66 36.266 137.649 36.3087C137.639 36.3727 137.548 36.3994 137.377 36.3887C137.207 36.3887 137.121 36.362 137.121 36.3087C137.207 33.578 137.239 31.7007 137.217 30.6767ZM149.775 31.9567C149.829 31.882 149.882 31.8394 149.935 31.8287C149.999 31.818 150.047 31.8447 150.079 31.9087C150.111 31.9727 150.117 32.0794 150.095 32.2287C149.733 33.1034 149.135 33.8607 148.303 34.5007C147.471 35.13 146.719 35.4447 146.047 35.4447C145.055 35.4447 144.421 34.986 144.143 34.0687C143.898 33.258 143.983 32.3674 144.399 31.3967C144.794 30.4794 145.338 29.8927 146.031 29.6367C146.213 29.5727 146.394 29.53 146.575 29.5087C147.439 29.4554 147.866 29.7434 147.855 30.3727C147.845 30.938 147.535 31.5567 146.927 32.2287C146.287 32.9327 145.679 33.2794 145.103 33.2687C145.029 33.2687 144.959 33.258 144.895 33.2367C144.927 33.642 145.045 33.962 145.247 34.1967C145.45 34.4314 145.749 34.538 146.143 34.5167C146.613 34.4847 147.087 34.3407 147.567 34.0847C148.058 33.8287 148.49 33.514 148.863 33.1407C149.237 32.7674 149.541 32.3727 149.775 31.9567ZM146.479 30.2927C146.095 30.3567 145.759 30.6127 145.471 31.0607C145.183 31.498 144.997 31.994 144.911 32.5487C145.189 32.6447 145.621 32.4154 146.207 31.8607C146.773 31.338 147.071 30.906 147.103 30.5647C147.125 30.298 146.917 30.2074 146.479 30.2927ZM151.346 27.3167C151.24 27.338 151.053 27.4127 150.786 27.5407C150.285 27.7647 149.992 27.8234 149.906 27.7167C149.864 27.6634 149.848 27.578 149.858 27.4607C149.89 27.1834 150.152 26.9434 150.642 26.7407C151.122 26.538 151.757 26.3834 152.546 26.2767C153.336 26.17 154.098 26.0954 154.834 26.0527C155.56 25.9994 156.322 25.9674 157.122 25.9567C157.122 25.9354 157.128 25.8767 157.138 25.7807C157.149 25.6847 157.16 25.5834 157.17 25.4767C157.181 25.3594 157.197 25.2314 157.218 25.0927C157.24 24.954 157.261 24.8207 157.282 24.6927C157.304 24.554 157.325 24.426 157.346 24.3087C157.368 24.1914 157.389 24.0954 157.41 24.0207C157.442 23.9354 157.474 23.882 157.506 23.8607C157.869 23.562 158.066 23.754 158.098 24.4367C158.109 24.7567 158.072 25.258 157.986 25.9407C158.402 25.9407 158.749 25.9407 159.026 25.9407C159.048 25.9514 159.16 25.9567 159.362 25.9567C159.576 25.9567 159.778 25.962 159.97 25.9727C160.173 25.9727 160.429 25.978 160.738 25.9887C161.058 25.9994 161.352 26.0154 161.618 26.0367C161.896 26.0474 162.189 26.0634 162.498 26.0847C162.808 26.106 163.085 26.1327 163.33 26.1647C163.586 26.1967 163.821 26.234 164.034 26.2767C164.248 26.3087 164.413 26.3567 164.53 26.4207C164.658 26.474 164.733 26.5327 164.754 26.5967C164.786 26.7567 164.77 26.8794 164.706 26.9647C164.642 27.05 164.53 27.098 164.37 27.1087C164.221 27.1194 164.077 27.1194 163.938 27.1087C163.8 27.0874 163.629 27.0607 163.426 27.0287C163.224 26.9967 163.08 26.9754 162.994 26.9647C161.085 26.826 159.378 26.7407 157.874 26.7087L157.778 27.2207C157.213 32.4794 157.101 35.9407 157.442 37.6047C157.549 37.9034 157.789 38.282 158.162 38.7407C158.269 38.826 158.178 38.954 157.89 39.1247C157.645 39.274 157.485 39.322 157.41 39.2687C157.197 39.1514 157.016 38.938 156.866 38.6287C156.664 38.266 156.536 37.802 156.482 37.2367C156.184 35.1674 156.36 31.658 157.01 26.7087C154.461 26.7087 152.573 26.9114 151.346 27.3167ZM161.623 25.3647C161.495 26.2607 161.394 27.1887 161.319 28.1487C161.255 29.098 161.202 30.2447 161.159 31.5887C161.117 32.9327 161.085 33.8287 161.063 34.2767C161.191 33.8607 161.33 33.4714 161.479 33.1087C161.629 32.746 161.794 32.394 161.975 32.0527C162.167 31.7007 162.359 31.4127 162.551 31.1887C162.743 30.9647 162.951 30.8047 163.175 30.7087C163.399 30.602 163.618 30.5914 163.831 30.6767C164.066 30.762 164.237 30.9807 164.343 31.3327C164.45 31.674 164.509 32.058 164.519 32.4847C164.53 32.9007 164.541 33.3167 164.551 33.7327C164.573 34.1487 164.637 34.5007 164.743 34.7887C164.85 35.0767 165.021 35.226 165.255 35.2367C165.426 35.2474 165.602 35.21 165.783 35.1247C165.975 35.0287 166.146 34.922 166.295 34.8047C166.445 34.6874 166.615 34.522 166.807 34.3087C166.999 34.0847 167.149 33.9034 167.255 33.7647C167.362 33.626 167.506 33.434 167.687 33.1887C167.869 32.9434 167.981 32.7887 168.023 32.7247C168.109 32.618 168.199 32.6074 168.295 32.6927L168.311 32.7247C168.375 32.778 168.386 32.8474 168.343 32.9327C168.162 33.2847 167.97 33.6207 167.767 33.9407C167.565 34.25 167.325 34.57 167.047 34.9007C166.781 35.2207 166.487 35.4767 166.167 35.6687C165.847 35.8607 165.527 35.9567 165.207 35.9567C164.898 35.9567 164.642 35.85 164.439 35.6367C164.237 35.4127 164.098 35.1354 164.023 34.8047C163.959 34.474 163.906 34.1114 163.863 33.7167C163.831 33.322 163.815 32.954 163.815 32.6127C163.815 32.2714 163.799 31.978 163.767 31.7327C163.735 31.4767 163.677 31.3274 163.591 31.2847C163.41 31.21 163.175 31.4074 162.887 31.8767C162.61 32.3354 162.338 32.9114 162.071 33.6047C161.815 34.2874 161.586 34.9327 161.383 35.5407C161.191 36.138 161.058 36.602 160.983 36.9327C160.951 37.018 160.893 37.0607 160.807 37.0607H160.423C160.338 37.0607 160.29 36.9487 160.279 36.7247C160.183 35.37 160.226 33.3754 160.407 30.7407C160.599 28.106 160.85 26.2394 161.159 25.1407C161.202 25.0127 161.303 25.002 161.463 25.1087C161.591 25.1834 161.645 25.2687 161.623 25.3647ZM174.505 31.9567C174.558 31.882 174.611 31.8394 174.665 31.8287C174.729 31.818 174.777 31.8447 174.809 31.9087C174.841 31.9727 174.846 32.0794 174.825 32.2287C174.462 33.1034 173.865 33.8607 173.033 34.5007C172.201 35.13 171.449 35.4447 170.777 35.4447C169.785 35.4447 169.15 34.986 168.873 34.0687C168.627 33.258 168.713 32.3674 169.129 31.3967C169.523 30.4794 170.067 29.8927 170.761 29.6367C170.942 29.5727 171.123 29.53 171.305 29.5087C172.169 29.4554 172.595 29.7434 172.585 30.3727C172.574 30.938 172.265 31.5567 171.657 32.2287C171.017 32.9327 170.409 33.2794 169.833 33.2687C169.758 33.2687 169.689 33.258 169.625 33.2367C169.657 33.642 169.774 33.962 169.977 34.1967C170.179 34.4314 170.478 34.538 170.873 34.5167C171.342 34.4847 171.817 34.3407 172.297 34.0847C172.787 33.8287 173.219 33.514 173.593 33.1407C173.966 32.7674 174.27 32.3727 174.505 31.9567ZM171.209 30.2927C170.825 30.3567 170.489 30.6127 170.201 31.0607C169.913 31.498 169.726 31.994 169.641 32.5487C169.918 32.6447 170.35 32.4154 170.937 31.8607C171.502 31.338 171.801 30.906 171.833 30.5647C171.854 30.298 171.646 30.2074 171.209 30.2927ZM188.38 31.8927C188.412 31.914 188.438 31.9514 188.46 32.0047C188.481 32.0474 188.481 32.0954 188.46 32.1487C188.353 32.3834 188.204 32.6607 188.012 32.9807C187.83 33.29 187.606 33.626 187.34 33.9887C187.073 34.3514 186.78 34.6554 186.46 34.9007C186.15 35.146 185.857 35.2687 185.58 35.2687C185.11 35.2687 184.78 34.9914 184.588 34.4367C184.396 33.8714 184.353 33.194 184.46 32.4047C183.382 34.7407 182.609 35.9194 182.14 35.9407C181.798 35.9514 181.516 35.8394 181.292 35.6047C181.068 35.3594 180.918 35.034 180.844 34.6287C180.769 34.2127 180.721 33.786 180.7 33.3487C180.678 32.9114 180.694 32.4634 180.748 32.0047C180.801 31.5354 180.849 31.1727 180.892 30.9167C180.924 30.65 180.956 30.442 180.988 30.2927C181.009 30.1967 181.105 30.1274 181.276 30.0847C181.446 30.0314 181.606 30.026 181.756 30.0687C181.916 30.1007 181.99 30.17 181.98 30.2767C181.926 30.6074 181.868 31.1354 181.804 31.8607C181.75 32.586 181.724 33.3114 181.724 34.0367C181.734 34.762 181.798 35.162 181.916 35.2367C182.001 35.29 182.134 35.1994 182.316 34.9647C182.497 34.7194 182.705 34.378 182.94 33.9407C183.185 33.5034 183.409 33.0874 183.612 32.6927C183.825 32.2874 184.044 31.8607 184.268 31.4127C184.492 30.9647 184.625 30.698 184.668 30.6127C184.71 30.5594 184.801 30.522 184.94 30.5007C185.078 30.4794 185.206 30.4954 185.324 30.5487C185.452 30.602 185.505 30.6927 185.484 30.8207C185.398 31.3327 185.361 32.1007 185.372 33.1247C185.382 34.1487 185.478 34.6607 185.66 34.6607C185.83 34.6607 186.049 34.5487 186.316 34.3247C186.593 34.09 186.881 33.7807 187.18 33.3967C187.489 33.002 187.804 32.5594 188.124 32.0687C188.22 31.93 188.305 31.8714 188.38 31.8927ZM198.075 32.3407C198.118 32.3727 198.118 32.4794 198.075 32.6607C198.043 32.842 197.958 33.082 197.819 33.3807C197.681 33.6687 197.526 33.9834 197.355 34.3247C197.185 34.6554 196.982 34.9914 196.747 35.3327C196.513 35.674 196.278 35.9834 196.043 36.2607C195.819 36.5487 195.579 36.7834 195.323 36.9647C195.078 37.146 194.849 37.2367 194.635 37.2367C194.177 37.258 193.814 37.114 193.547 36.8047C193.291 36.4954 193.137 36.106 193.083 35.6367C193.041 35.1674 193.014 34.6607 193.003 34.1167C193.003 33.5727 193.019 33.0714 193.051 32.6127C193.094 32.154 193.073 31.7914 192.987 31.5247C192.913 31.2474 192.769 31.1354 192.555 31.1887C192.257 31.2634 191.889 31.69 191.451 32.4687C191.025 33.2367 190.641 33.9887 190.299 34.7247C189.958 35.45 189.755 35.8127 189.691 35.8127C189.361 35.8127 189.142 35.722 189.035 35.5407C188.918 35.3487 188.865 35.05 188.875 34.6447C188.886 34.314 188.907 33.7914 188.939 33.0767C188.961 32.3514 188.977 31.7967 188.987 31.4127V31.1407C188.987 31.0447 188.987 30.9487 188.987 30.8527C188.966 30.49 188.971 30.218 189.003 30.0367C189.057 29.7487 189.201 29.5994 189.435 29.5887C189.627 29.5887 189.761 29.7327 189.835 30.0207H189.867L189.851 30.1327C189.883 30.4207 189.899 30.6554 189.899 30.8367C189.899 31.0074 189.889 31.2474 189.867 31.5567C189.846 31.866 189.83 32.042 189.819 32.0847C189.819 32.2127 189.814 32.474 189.803 32.8687C189.803 33.2527 189.803 33.53 189.803 33.7007C189.995 33.2207 190.198 32.7834 190.411 32.3887C190.625 31.9834 190.865 31.6047 191.131 31.2527C191.398 30.89 191.686 30.6234 191.995 30.4527C192.305 30.2714 192.614 30.2127 192.923 30.2767C193.617 30.426 194.001 31.2154 194.075 32.6447C194.086 32.9434 194.091 33.402 194.091 34.0207C194.07 35.162 194.129 35.85 194.267 36.0847C194.417 36.3407 194.678 36.346 195.051 36.1007C195.211 35.994 195.361 35.882 195.499 35.7647C195.649 35.6367 195.793 35.4874 195.931 35.3167C196.081 35.1354 196.203 34.9914 196.299 34.8847C196.395 34.7674 196.518 34.586 196.667 34.3407C196.827 34.0954 196.934 33.9247 196.987 33.8287C197.051 33.7327 197.169 33.5354 197.339 33.2367C197.521 32.9274 197.638 32.73 197.691 32.6447C197.841 32.41 197.969 32.3087 198.075 32.3407ZM204.265 31.9567C204.319 31.882 204.372 31.8394 204.425 31.8287C204.489 31.818 204.537 31.8447 204.569 31.9087C204.601 31.9727 204.607 32.0794 204.585 32.2287C204.223 33.1034 203.625 33.8607 202.793 34.5007C201.961 35.13 201.209 35.4447 200.537 35.4447C199.545 35.4447 198.911 34.986 198.633 34.0687C198.388 33.258 198.473 32.3674 198.889 31.3967C199.284 30.4794 199.828 29.8927 200.521 29.6367C200.703 29.5727 200.884 29.53 201.065 29.5087C201.929 29.4554 202.356 29.7434 202.345 30.3727C202.335 30.938 202.025 31.5567 201.417 32.2287C200.777 32.9327 200.169 33.2794 199.593 33.2687C199.519 33.2687 199.449 33.258 199.385 33.2367C199.417 33.642 199.535 33.962 199.737 34.1967C199.94 34.4314 200.239 34.538 200.633 34.5167C201.103 34.4847 201.577 34.3407 202.057 34.0847C202.548 33.8287 202.98 33.514 203.353 33.1407C203.727 32.7674 204.031 32.3727 204.265 31.9567ZM200.969 30.2927C200.585 30.3567 200.249 30.6127 199.961 31.0607C199.673 31.498 199.487 31.994 199.401 32.5487C199.679 32.6447 200.111 32.4154 200.697 31.8607C201.263 31.338 201.561 30.906 201.593 30.5647C201.615 30.298 201.407 30.2074 200.969 30.2927ZM209.71 34.5007C209.828 34.4154 209.892 34.4314 209.902 34.5487C209.924 34.666 209.908 34.7727 209.854 34.8687C209.78 35.1034 209.593 35.274 209.294 35.3807C209.006 35.4874 208.665 35.5674 208.27 35.6207C207.406 35.7274 206.708 35.498 206.174 34.9327C205.854 35.402 205.588 35.8714 205.374 36.3407C205.289 36.4687 205.198 36.5434 205.102 36.5647C204.996 36.586 204.926 36.5594 204.894 36.4847C204.862 36.41 204.868 36.3087 204.91 36.1807C205.188 35.466 205.465 34.8527 205.742 34.3407C205.433 33.7754 205.262 33.098 205.23 32.3087C205.188 31.5194 205.273 30.858 205.486 30.3247C205.497 30.282 205.534 30.234 205.598 30.1807C205.662 30.1167 205.721 30.0954 205.774 30.1167C205.838 30.138 205.87 30.2287 205.87 30.3887C205.838 31.8287 205.95 32.89 206.206 33.5727C206.708 32.7834 207.369 31.994 208.19 31.2047C208.414 30.9914 208.606 30.8367 208.766 30.7407C208.926 30.6447 209.049 30.5967 209.134 30.5967C209.22 30.586 209.289 30.6234 209.342 30.7087C209.406 30.794 209.444 30.8794 209.454 30.9647C209.476 31.0394 209.497 31.1514 209.518 31.3007C209.454 31.354 209.38 31.418 209.294 31.4927C209.22 31.5567 209.14 31.626 209.054 31.7007C208.969 31.7754 208.9 31.8394 208.846 31.8927C207.94 32.7354 207.193 33.5407 206.606 34.3087C207.129 34.9274 207.934 35.0714 209.022 34.7407C209.396 34.634 209.625 34.554 209.71 34.5007ZM216.475 29.3807C216.71 29.5514 216.87 29.7754 216.955 30.0527C217.051 30.33 217.089 30.6127 217.067 30.9007C217.046 31.1887 216.982 31.498 216.875 31.8287C216.779 32.1487 216.667 32.4367 216.539 32.6927C216.422 32.9487 216.299 33.1834 216.171 33.3967C215.915 33.7914 215.457 34.282 214.795 34.8687C214.134 35.4554 213.643 35.7487 213.323 35.7487C213.249 35.7487 213.185 35.7274 213.131 35.6847C213.089 35.6314 213.067 35.5727 213.067 35.5087C214.241 34.698 215.185 33.61 215.899 32.2447C216.145 31.7647 216.294 31.2527 216.347 30.7087C216.401 30.1647 216.251 29.9247 215.899 29.9887C215.814 29.9994 215.707 30.0367 215.579 30.1007C215.099 30.346 214.667 30.7034 214.283 31.1727C213.91 31.6314 213.606 32.1434 213.371 32.7087C213.147 33.274 212.95 33.8927 212.779 34.5647C212.609 35.226 212.497 35.882 212.443 36.5327C212.39 37.1834 212.353 37.8234 212.331 38.4527C212.31 39.0927 212.326 39.658 212.379 40.1487C212.411 40.4794 212.342 40.682 212.171 40.7567C211.787 40.9274 211.558 40.1807 211.483 38.5167C211.398 36.8527 211.419 35.1087 211.547 33.2847C211.675 31.4607 211.814 30.33 211.963 29.8927L211.947 29.8127H211.979C212.075 29.578 212.198 29.466 212.347 29.4767C212.561 29.498 212.667 29.6314 212.667 29.8767C212.561 31.0927 212.475 32.2287 212.411 33.2847C212.475 33.1354 212.539 32.9807 212.603 32.8207C212.678 32.6607 212.769 32.474 212.875 32.2607C212.982 32.0474 213.121 31.7967 213.291 31.5087C213.462 31.2207 213.643 30.9487 213.835 30.6927C214.027 30.4367 214.235 30.1914 214.459 29.9567C214.683 29.7114 214.907 29.5247 215.131 29.3967C215.355 29.2687 215.585 29.194 215.819 29.1727C216.054 29.1407 216.273 29.21 216.475 29.3807ZM224.804 32.7407C224.89 32.794 224.911 32.8687 224.868 32.9647C224.676 33.4447 224.436 33.962 224.148 34.5167C223.86 35.0714 223.524 35.6314 223.14 36.1967C222.767 36.762 222.362 37.226 221.924 37.5887C221.487 37.9514 221.076 38.1274 220.692 38.1167C220.212 38.106 219.85 37.9407 219.604 37.6207C219.37 37.3007 219.21 36.8687 219.124 36.3247C219.06 35.8767 219.028 35.338 219.028 34.7087C219.028 34.1647 219.055 33.5674 219.108 32.9167C219.194 31.6474 219.354 30.3407 219.588 28.9967C219.823 27.6527 220.042 26.65 220.244 25.9887C220.372 25.5727 220.522 25.2474 220.692 25.0127C220.874 24.7674 221.044 24.6287 221.204 24.5967C221.375 24.554 221.535 24.5754 221.684 24.6607C221.834 24.7354 221.956 24.874 222.052 25.0767C222.159 25.2794 222.223 25.514 222.244 25.7807C222.34 26.9327 222.164 28.106 221.716 29.3007C221.279 30.4954 220.682 31.6314 219.924 32.7087C219.775 35.066 219.866 36.5167 220.196 37.0607C220.292 37.2207 220.41 37.3167 220.548 37.3487C220.698 37.3914 220.858 37.3647 221.028 37.2687C221.199 37.1727 221.375 37.05 221.556 36.9007C221.738 36.7514 221.93 36.5487 222.132 36.2927C222.346 36.0474 222.538 35.8127 222.708 35.5887C222.89 35.354 223.082 35.0874 223.284 34.7887C223.487 34.4794 223.652 34.2234 223.78 34.0207C223.919 33.8074 224.068 33.5727 224.228 33.3167C224.399 33.05 224.511 32.8794 224.564 32.8047C224.596 32.7514 224.644 32.7247 224.708 32.7247C224.74 32.7247 224.772 32.73 224.804 32.7407ZM221.348 25.3007C221.114 25.514 220.874 26.1967 220.628 27.3487C220.383 28.49 220.191 29.7807 220.052 31.2207C220.586 30.1754 221.002 29.1354 221.3 28.1007C221.61 27.0554 221.668 26.1967 221.476 25.5247C221.434 25.3967 221.391 25.322 221.348 25.3007ZM232.474 31.9087L232.57 32.1007C232.058 32.5807 231.637 32.922 231.306 33.1247C230.986 33.3274 230.431 33.594 229.642 33.9247C229.407 34.7247 229.039 35.338 228.538 35.7647C228.047 36.1914 227.487 36.2767 226.858 36.0207C226.09 35.7114 225.61 34.9327 225.418 33.6847C225.237 33.4074 225.162 33.0767 225.194 32.6927C225.226 32.3087 225.322 31.9354 225.482 31.5727C225.631 31.21 225.866 30.874 226.186 30.5647C226.517 30.2554 226.885 30.042 227.29 29.9247C227.791 29.7967 228.213 29.786 228.554 29.8927C228.895 29.9887 229.167 30.1914 229.37 30.5007C229.573 30.81 229.711 31.1674 229.786 31.5727C229.861 31.9674 229.877 32.3994 229.834 32.8687C230.463 32.6874 231.343 32.3674 232.474 31.9087ZM227.594 35.2847C227.999 35.178 228.335 34.8154 228.602 34.1967C227.951 34.3354 227.359 34.3994 226.826 34.3887C226.602 34.3887 226.394 34.3567 226.202 34.2927C226.511 35.1247 226.975 35.4554 227.594 35.2847ZM228.874 33.2367C228.938 32.8527 228.954 32.4847 228.922 32.1327C228.89 31.7807 228.805 31.4714 228.666 31.2047C228.538 30.938 228.346 30.7674 228.09 30.6927C227.834 30.6074 227.514 30.6394 227.13 30.7887C226.639 31.002 226.287 31.4074 226.074 32.0047C225.861 32.602 225.909 33.0447 226.218 33.3327C226.367 33.482 226.57 33.5514 226.826 33.5407C227.583 33.53 228.266 33.4287 228.874 33.2367ZM233.341 30.6767V30.6607C233.341 30.6607 233.346 30.6554 233.357 30.6447C233.357 30.6234 233.362 30.602 233.373 30.5807C233.383 30.5487 233.399 30.522 233.421 30.5007C233.442 30.4687 233.479 30.4474 233.533 30.4367C233.586 30.4154 233.65 30.4047 233.725 30.4047C233.831 30.4047 233.911 30.426 233.965 30.4687C234.029 30.5114 234.077 30.5914 234.109 30.7087C234.141 30.8474 234.157 31.0234 234.157 31.2367C234.167 31.4394 234.162 31.6207 234.141 31.7807C234.13 31.9407 234.114 32.1007 234.093 32.2607C234.082 32.41 234.077 32.49 234.077 32.5007C234.077 32.5967 234.077 32.7514 234.077 32.9647C234.237 32.4634 234.402 32.01 234.573 31.6047C234.743 31.1994 234.935 30.8207 235.149 30.4687C235.362 30.1167 235.586 29.8554 235.821 29.6847C236.066 29.514 236.311 29.4607 236.557 29.5247C236.749 29.578 236.903 29.738 237.021 30.0047C237.138 30.2607 237.223 30.5487 237.277 30.8687C237.341 31.178 237.405 31.482 237.469 31.7807C237.533 32.0687 237.639 32.282 237.789 32.4207C237.938 32.5594 238.135 32.57 238.381 32.4527C238.519 32.378 238.69 32.2927 238.893 32.1967C239.053 32.122 239.202 32.1327 239.341 32.2287C239.394 32.3674 239.293 32.5434 239.037 32.7567C238.791 32.97 238.519 33.1087 238.221 33.1727C237.922 33.2367 237.666 33.2207 237.453 33.1247C237.239 33.0287 237.079 32.89 236.973 32.7087C236.866 32.5274 236.77 32.2874 236.685 31.9887C236.621 31.7647 236.551 31.4554 236.477 31.0607C236.402 30.666 236.349 30.4207 236.317 30.3247C235.623 30.6767 234.797 32.602 233.837 36.1007C233.805 36.1967 233.783 36.266 233.773 36.3087C233.762 36.3727 233.671 36.3994 233.501 36.3887C233.33 36.3887 233.245 36.362 233.245 36.3087C233.33 33.578 233.362 31.7007 233.341 30.6767ZM245.899 31.9567C245.952 31.882 246.005 31.8394 246.059 31.8287C246.123 31.818 246.171 31.8447 246.203 31.9087C246.235 31.9727 246.24 32.0794 246.219 32.2287C245.856 33.1034 245.259 33.8607 244.427 34.5007C243.595 35.13 242.843 35.4447 242.171 35.4447C241.179 35.4447 240.544 34.986 240.267 34.0687C240.021 33.258 240.107 32.3674 240.523 31.3967C240.917 30.4794 241.461 29.8927 242.155 29.6367C242.336 29.5727 242.517 29.53 242.699 29.5087C243.563 29.4554 243.989 29.7434 243.979 30.3727C243.968 30.938 243.659 31.5567 243.051 32.2287C242.411 32.9327 241.803 33.2794 241.227 33.2687C241.152 33.2687 241.083 33.258 241.019 33.2367C241.051 33.642 241.168 33.962 241.371 34.1967C241.573 34.4314 241.872 34.538 242.267 34.5167C242.736 34.4847 243.211 34.3407 243.691 34.0847C244.181 33.8287 244.613 33.514 244.987 33.1407C245.36 32.7674 245.664 32.3727 245.899 31.9567ZM242.603 30.2927C242.219 30.3567 241.883 30.6127 241.595 31.0607C241.307 31.498 241.12 31.994 241.035 32.5487C241.312 32.6447 241.744 32.4154 242.331 31.8607C242.896 31.338 243.195 30.906 243.227 30.5647C243.248 30.298 243.04 30.2074 242.603 30.2927ZM246.781 35.9727L246.749 35.9567C246.749 35.9567 246.755 35.9567 246.765 35.9567C246.776 35.9674 246.781 35.9727 246.781 35.9727ZM251.405 30.3887C251.16 33.9514 251.416 36.3674 252.173 37.6367C252.301 37.85 252.355 38.0154 252.333 38.1327C252.323 38.2607 252.285 38.346 252.221 38.3887C252.157 38.442 252.083 38.4687 251.997 38.4687C250.931 38.4687 250.403 36.4794 250.413 32.5007C249.005 35.21 247.789 36.362 246.765 35.9567C246.168 35.658 245.976 35.066 246.189 34.1807C246.285 33.8074 246.424 33.4127 246.605 32.9967C246.787 32.5807 247.011 32.1647 247.277 31.7487C247.555 31.322 247.853 30.9487 248.173 30.6287C248.493 30.298 248.856 30.042 249.261 29.8607C249.677 29.6687 250.093 29.5887 250.509 29.6207C250.787 25.066 251.363 22.7727 252.237 22.7407C252.717 22.73 253.005 23.0234 253.101 23.6207C253.208 24.218 253.155 24.938 252.941 25.7807C252.739 26.6234 252.536 27.3647 252.333 28.0047C252.131 28.6447 251.955 29.1247 251.805 29.4447C251.784 29.5194 251.725 29.6634 251.629 29.8767C251.544 30.0794 251.469 30.25 251.405 30.3887ZM252.317 23.8447C252.179 24.378 252.008 25.306 251.805 26.6287C252.232 25.3274 252.403 24.3994 252.317 23.8447ZM247.837 34.6127C248.136 34.3034 248.515 33.7487 248.973 32.9487C249.432 32.1487 249.891 31.2527 250.349 30.2607C249.859 30.3887 249.315 30.81 248.717 31.5247C248.12 32.2394 247.656 32.9594 247.325 33.6847C247.005 34.41 246.936 34.8687 247.117 35.0607C247.128 35.0607 247.139 35.0607 247.149 35.0607C247.16 35.0607 247.171 35.0607 247.181 35.0607C247.203 35.0607 247.224 35.0607 247.245 35.0607C247.267 35.05 247.288 35.0394 247.309 35.0287C247.341 35.018 247.373 35.002 247.405 34.9807C247.448 34.9594 247.491 34.9327 247.533 34.9007C247.576 34.8687 247.624 34.8314 247.677 34.7887C247.731 34.7354 247.784 34.6767 247.837 34.6127Z" fill="#FF5300"/>
<path d="M102.081 16.8641V1.8817C102.081 1.67958 102.202 1.51447 102.444 1.38352C102.686 1.25257 102.956 1.1871 103.255 1.1871C103.583 1.1871 103.802 1.28103 103.912 1.46607L109.454 9.56789L115.02 1.46038C115.129 1.27534 115.325 1.1814 115.607 1.1814C115.889 1.1814 116.163 1.25257 116.43 1.38921C116.695 1.5287 116.83 1.69096 116.83 1.876V16.8584C116.83 17.0605 116.744 17.2199 116.571 17.3338C116.399 17.4505 116.194 17.5074 115.961 17.5074C115.383 17.5074 115.092 17.2911 115.092 16.8555V4.38113L110.816 10.5215C110.439 11.0624 109.978 11.3357 109.431 11.3357C108.931 11.3357 108.484 11.0653 108.093 10.5215L103.817 4.38967V16.8641C103.817 17.0662 103.73 17.2256 103.558 17.3395C103.385 17.4562 103.181 17.5131 102.947 17.5131C102.369 17.5131 102.081 17.2968 102.081 16.8641Z" fill="#121212"/>
<path d="M119.786 12.7762C119.786 12.6367 119.789 11.9449 119.797 10.698C119.806 9.45117 119.809 8.0705 119.809 6.55034C119.809 6.34822 119.895 6.19165 120.068 6.07493C120.241 5.95822 120.445 5.90129 120.678 5.90129C121.256 5.90129 121.547 6.11764 121.547 6.55034V12.5655C121.547 13.6643 121.941 14.5212 122.733 15.1333C123.524 15.7453 124.342 16.0499 125.188 16.0499C126.252 16.0499 127.392 15.6656 128.604 14.8998C129.815 14.134 130.658 13.1775 131.128 12.0303V6.52472C131.128 6.10625 131.424 5.89844 132.02 5.89844C132.256 5.89844 132.454 5.95253 132.618 6.0607C132.782 6.16888 132.866 6.3226 132.866 6.52472V16.884C132.866 17.0861 132.782 17.2398 132.618 17.348C132.454 17.4562 132.256 17.5103 132.02 17.5103C131.424 17.5103 131.128 17.3025 131.128 16.884V14.9795C130.345 15.8307 129.409 16.5054 128.322 17.0007C127.234 17.496 126.117 17.7437 124.975 17.7437C123.504 17.7437 122.269 17.2797 121.277 16.3488C120.284 15.4236 119.786 14.2308 119.786 12.7762Z" fill="#121212"/>
<path d="M135.191 15.307C135.191 15.1049 135.292 14.8886 135.496 14.6551C135.7 14.4217 135.933 14.2765 136.201 14.2139C136.325 14.2139 136.388 14.2281 136.388 14.2594C136.877 14.8003 137.58 15.2245 138.498 15.5262C139.413 15.828 140.135 16.0016 140.665 16.05C141.191 16.0956 141.683 16.1183 142.144 16.1183C144.179 16.1183 145.197 15.5063 145.197 14.2822C145.197 13.8637 145.045 13.5278 144.74 13.2716C144.435 13.0154 144.02 12.8418 143.496 12.7478C142.973 12.6539 142.443 12.5941 141.911 12.5628C141.378 12.5315 140.8 12.5058 140.173 12.4802C139.545 12.4574 139.07 12.4147 138.739 12.3521C137.847 12.1756 137.056 11.8027 136.368 11.2333C135.68 10.664 135.335 9.99502 135.335 9.2264C135.335 8.08486 135.933 7.20806 137.131 6.59886C138.328 5.98966 139.646 5.68506 141.088 5.68506C142.058 5.68506 143.099 5.85017 144.21 6.18324C145.321 6.51631 146.153 7.03156 146.7 7.72901C146.714 7.76033 146.723 7.80018 146.723 7.84573C146.723 8.04785 146.628 8.28413 146.441 8.55457C146.253 8.82501 146.072 8.96166 145.899 8.96166C145.744 8.96166 145.586 8.83924 145.43 8.59157C144.679 7.80303 143.183 7.40733 140.947 7.40733C140.023 7.40733 139.145 7.55252 138.316 7.84573C137.487 8.13894 137.07 8.56881 137.07 9.141C137.07 9.62495 137.43 9.98647 138.149 10.2284C138.869 10.4704 139.637 10.59 140.452 10.59C141.03 10.59 141.516 10.5985 141.908 10.6128C142.299 10.627 142.777 10.6725 143.341 10.7466C143.905 10.8206 144.374 10.943 144.751 11.1138C145.128 11.2846 145.494 11.5038 145.853 11.7742C146.213 12.0418 146.484 12.4005 146.665 12.8503C146.843 13.2972 146.936 13.8239 146.936 14.4274C146.936 15.2159 146.688 15.8792 146.196 16.4144C145.704 16.9496 145.14 17.3197 144.504 17.5303C143.868 17.741 143.2 17.8435 142.495 17.8435C139.191 17.8435 136.811 17.146 135.355 15.754C135.246 15.6401 135.191 15.4921 135.191 15.307Z" fill="#121212"/>
<path d="M148.763 13.2858C148.763 11.2105 149.586 9.42274 151.23 7.91966C152.873 6.41658 154.738 5.66504 156.818 5.66504C158.243 5.66504 159.457 6.20023 160.459 7.26775C161.46 8.33528 161.961 9.55084 161.961 10.9144L161.938 17.0007C161.938 17.2029 161.84 17.3594 161.645 17.4762C161.449 17.5929 161.233 17.6498 161 17.6498C160.485 17.6498 160.226 17.4335 160.226 17.0007V13.0751C158.957 14.7006 157.748 15.8791 156.597 16.6051C155.446 17.3338 154.26 17.6954 153.04 17.6954C151.912 17.6954 150.919 17.2427 150.058 16.3375C149.195 15.435 148.763 14.4159 148.763 13.2858ZM150.455 13.3313C150.455 14.2138 150.769 14.8856 151.394 15.3411C152.018 15.7994 152.686 16.0272 153.391 16.0272C154.205 16.0272 155.138 15.6286 156.185 14.8315C157.233 14.0344 158.108 13.1434 158.804 12.1613C159.501 11.1792 159.849 10.4077 159.849 9.84975C159.849 9.38573 159.711 8.97011 159.437 8.60572C159.164 8.24134 158.827 7.97375 158.427 7.80579C158.027 7.63499 157.664 7.50688 157.336 7.42148C157.008 7.33608 156.735 7.29337 156.513 7.29337C154.979 7.29337 153.586 7.90258 152.332 9.11813C151.083 10.3308 150.455 11.7371 150.455 13.3313Z" fill="#121212"/>
<path d="M163.889 7.3391C163.889 6.7669 164.108 6.47939 164.545 6.47939H165.343V5.03894C165.343 1.73957 166.589 0.0913086 169.075 0.0913086C170.154 0.0913086 171.064 0.415835 171.801 1.06774C172.537 1.71679 172.911 2.65622 172.929 3.87747C172.929 4.12513 172.845 4.31586 172.681 4.44681C172.517 4.57776 172.319 4.64324 172.083 4.64324C171.832 4.64324 171.619 4.57208 171.449 4.43543C171.277 4.29594 171.19 4.1166 171.19 3.90024C171.19 3.12593 170.98 2.58505 170.557 2.27475C170.134 1.96446 169.642 1.81074 169.078 1.81074C167.749 1.81074 167.081 2.67899 167.081 4.41265V6.47939H170.839C171.262 6.47939 171.472 6.7726 171.472 7.36188C171.472 7.59531 171.418 7.79173 171.308 7.95399C171.199 8.11626 171.041 8.19882 170.839 8.19882H167.081V16.8643C167.081 17.2827 166.784 17.4906 166.189 17.4906C165.953 17.4906 165.754 17.4365 165.59 17.3283C165.426 17.2201 165.343 17.0664 165.343 16.8643V8.19882H164.545C164.341 8.19882 164.183 8.11341 164.065 7.94261C163.947 7.7718 163.889 7.57253 163.889 7.3391Z" fill="#121212"/>
<path d="M173.234 2.92658V2.50811C173.234 2.08964 173.53 1.88184 174.126 1.88184C174.362 1.88184 174.56 1.93592 174.724 2.04409C174.888 2.15227 174.972 2.30884 174.972 2.50811V2.92658C174.972 3.1287 174.886 3.28528 174.713 3.40199C174.54 3.51871 174.336 3.57564 174.103 3.57564C173.524 3.57564 173.234 3.35929 173.234 2.92658ZM173.234 16.8642V6.5277C173.234 6.10923 173.53 5.90143 174.126 5.90143C174.362 5.90143 174.56 5.95552 174.724 6.06369C174.888 6.17187 174.972 6.32559 174.972 6.5277V16.8642C174.972 17.0663 174.886 17.2257 174.713 17.3396C174.54 17.4563 174.336 17.5133 174.103 17.5133C173.524 17.5133 173.234 17.2969 173.234 16.8642Z" fill="#121212"/>
<path d="M177.766 16.8642V6.57329C177.766 6.15482 178.063 5.94701 178.658 5.94701C178.894 5.94701 179.093 6.00109 179.257 6.10927C179.421 6.21744 179.505 6.37402 179.505 6.57329V9.47696C180.1 8.20732 180.762 7.24797 181.49 6.59607C182.218 5.94701 183.185 5.61963 184.391 5.61963C185.237 5.61963 186.089 5.72781 186.95 5.94416C187.404 6.16051 187.632 6.45373 187.632 6.82665C187.632 7.0914 187.577 7.27643 187.468 7.38461C187.358 7.49279 187.177 7.56396 186.927 7.59242C186.129 7.40739 185.479 7.31344 184.978 7.31344C183.819 7.31344 182.762 7.87994 181.807 9.01009C180.851 10.1402 180.086 11.612 179.505 13.4225V16.8614C179.505 17.0635 179.418 17.2229 179.246 17.3368C179.073 17.4535 178.869 17.5105 178.635 17.5105C178.057 17.5133 177.766 17.2969 177.766 16.8642Z" fill="#121212"/>
<path d="M195.238 16.8638V1.88148C195.238 1.46301 195.534 1.25519 196.13 1.25519C196.366 1.25519 196.564 1.30928 196.729 1.41746C196.893 1.52563 196.976 1.68221 196.976 1.88148V3.11411C198.104 1.8587 199.529 1.23242 201.25 1.23242C202.409 1.23242 203.402 1.54271 204.231 2.16045C205.06 2.78104 205.474 3.64075 205.474 4.73959C205.474 5.41996 205.29 6.09749 204.922 6.77217C204.553 7.44685 203.978 7.90801 203.195 8.15568C204.683 8.38911 205.82 8.93853 206.611 9.80394C207.403 10.6722 207.797 11.6002 207.797 12.5909C207.797 14.1224 207.296 15.3949 206.295 16.3998C205.293 17.4076 203.728 17.9086 201.598 17.9086C199.768 17.9086 198.208 17.6382 196.924 17.0944C196.783 17.3734 196.51 17.5129 196.101 17.5129C195.528 17.5129 195.238 17.2965 195.238 16.8638ZM196.976 7.73437C197.601 7.81123 198.3 7.85108 199.065 7.85108C200.536 7.85108 201.684 7.55217 202.504 6.9572C203.327 6.36224 203.736 5.65909 203.736 4.85631C203.736 4.19018 203.509 3.69484 203.054 3.37032C202.599 3.04579 201.998 2.88353 201.247 2.88353C200.369 2.88353 199.549 3.09134 198.78 3.50981C198.012 3.92828 197.411 4.57733 196.973 5.45982V7.73437H196.976ZM196.976 15.4006C197.978 15.9273 199.442 16.1892 201.368 16.1892C202.965 16.1892 204.148 15.8675 204.913 15.2241C205.682 14.5808 206.064 13.7894 206.064 12.8443C206.064 11.7454 205.587 10.9199 204.631 10.3704C203.676 9.82102 202.415 9.54489 200.85 9.54489C200.363 9.54489 199.667 9.55627 198.76 9.57905C197.851 9.60182 197.258 9.61321 196.976 9.61321V15.4006Z" fill="#121212"/>
<path d="M209.515 13.2858C209.515 11.2105 210.338 9.42274 211.981 7.91966C213.625 6.41658 215.489 5.66504 217.57 5.66504C218.995 5.66504 220.209 6.20023 221.211 7.26775C222.212 8.33528 222.713 9.55084 222.713 10.9144L222.69 17.0007C222.69 17.2029 222.592 17.3594 222.396 17.4762C222.201 17.5929 221.985 17.6498 221.752 17.6498C221.237 17.6498 220.978 17.4335 220.978 17.0007V13.0751C219.708 14.7006 218.5 15.8791 217.349 16.6051C216.197 17.3338 215.012 17.6954 213.792 17.6954C212.663 17.6954 211.671 17.2427 210.81 16.3375C209.947 15.435 209.515 14.4159 209.515 13.2858ZM211.207 13.3313C211.207 14.2138 211.521 14.8856 212.145 15.3411C212.77 15.7994 213.438 16.0272 214.143 16.0272C214.957 16.0272 215.889 15.6286 216.937 14.8315C217.985 14.0344 218.859 13.1434 219.556 12.1613C220.252 11.1792 220.601 10.4077 220.601 9.84975C220.601 9.38573 220.462 8.97011 220.189 8.60572C219.916 8.24134 219.579 7.97375 219.179 7.80579C218.779 7.63499 218.416 7.50688 218.088 7.42148C217.76 7.33608 217.487 7.29337 217.265 7.29337C215.731 7.29337 214.338 7.90258 213.084 9.11813C211.832 10.3308 211.207 11.7371 211.207 13.3313Z" fill="#121212"/>
<path d="M225.343 16.8644V0.697745C225.343 0.296355 225.64 0.0942383 226.235 0.0942383C226.799 0.0942383 227.081 0.296355 227.081 0.697745V7.04027C228.051 6.12647 229.188 5.67099 230.486 5.67099C232.567 5.67099 234.432 6.42253 236.075 7.9256C237.718 9.42868 238.541 11.2164 238.541 13.2917C238.541 14.4219 238.109 15.441 237.249 16.3463C236.389 17.2515 235.393 17.7041 234.268 17.7041C233.047 17.7041 231.862 17.3398 230.71 16.6138C229.559 15.8851 228.351 14.7094 227.081 13.0839V16.8701C227.081 17.0722 226.995 17.2316 226.822 17.3455C226.65 17.4622 226.445 17.5191 226.212 17.5191C225.634 17.5134 225.343 17.2971 225.343 16.8644ZM227.456 9.84715C227.456 10.4051 227.804 11.1766 228.5 12.1587C229.197 13.1437 230.069 14.0319 231.119 14.8289C232.167 15.626 233.099 16.0246 233.914 16.0246C234.619 16.0246 235.283 15.7968 235.911 15.3385C236.535 14.883 236.849 14.2112 236.849 13.3287C236.849 11.7345 236.222 10.3283 234.97 9.1127C233.718 7.89714 232.325 7.28794 230.788 7.28794C230.569 7.28794 230.296 7.33064 229.965 7.41605C229.637 7.50145 229.272 7.62954 228.874 7.80035C228.474 7.97115 228.138 8.23874 227.864 8.60028C227.594 8.97036 227.456 9.38313 227.456 9.84715Z" fill="#121212"/>
<path d="M240.325 13.2858C240.325 11.2105 241.148 9.42274 242.792 7.91966C244.435 6.41658 246.3 5.66504 248.38 5.66504C249.805 5.66504 251.019 6.20023 252.021 7.26775C253.022 8.33528 253.523 9.55084 253.523 10.9144L253.5 17.0007C253.5 17.2029 253.402 17.3594 253.207 17.4762C253.011 17.5929 252.795 17.6498 252.562 17.6498C252.047 17.6498 251.788 17.4335 251.788 17.0007V13.0751C250.519 14.7006 249.31 15.8791 248.159 16.6051C247.008 17.3338 245.822 17.6954 244.602 17.6954C243.474 17.6954 242.481 17.2427 241.62 16.3375C240.757 15.435 240.325 14.4159 240.325 13.2858ZM242.015 13.3313C242.015 14.2138 242.328 14.8856 242.953 15.3411C243.577 15.7994 244.245 16.0272 244.95 16.0272C245.764 16.0272 246.697 15.6286 247.744 14.8315C248.792 14.0344 249.667 13.1434 250.363 12.1613C251.06 11.1792 251.408 10.4077 251.408 9.84975C251.408 9.38573 251.27 8.97011 250.996 8.60572C250.723 8.24134 250.386 7.97375 249.986 7.80579C249.586 7.63499 249.224 7.50688 248.896 7.42148C248.568 7.33608 248.294 7.29337 248.073 7.29337C246.539 7.29337 245.146 7.90258 243.891 9.11813C242.642 10.3308 242.015 11.7371 242.015 13.3313Z" fill="#121212"/>
</svg>
